<svg width="21" height="20" viewBox="0 0 21 20" fill="none" xmlns="http://www.w3.org/2000/svg">
<path fill-rule="evenodd" clip-rule="evenodd" d="M4.31952 14.4965L5.75901 15.8674L1.44051 19.9813L0 18.6103L4.31952 14.4965ZM12.2164 14.1639C8.84875 14.1639 6.1082 11.5539 6.1082 8.34659C6.1082 5.13833 8.84875 2.52926 12.2164 2.52926C15.5851 2.52926 18.3246 5.13833 18.3246 8.34659C18.3246 11.5539 15.5851 14.1639 12.2164 14.1639ZM12.2164 0.590149C7.71873 0.590149 4.07213 4.0631 4.07213 8.34659C4.07213 12.6301 7.71873 16.103 12.2164 16.103C16.7151 16.103 20.3607 12.6301 20.3607 8.34659C20.3607 4.0631 16.7151 0.590149 12.2164 0.590149Z" fill="white"/>
</svg>
